<?xml version="1.0" standalone="no"?>
<!DOCTYPE svg PUBLIC "-//W3C//DTD SVG 20010904//EN"
 "http://www.w3.org/TR/2001/REC-SVG-20010904/DTD/svg10.dtd">
<svg version="1.0" xmlns="http://www.w3.org/2000/svg"
 width="1024.000000pt" height="1024.000000pt" viewBox="0 0 1024.000000 1024.000000"
 preserveAspectRatio="xMidYMid meet">

<g transform="translate(0.000000,1024.000000) scale(0.100000,-0.100000)"
fill="#000000" stroke="none">
<path d="M5025 7413 c-1392 -223 -2533 -408 -2536 -411 -3 -4 22 -182 57 -397 
l63 -390 1 -387 0 -388 30 0 c25 0 30 -4 30 -25 0 -20 5 -25 25 -25 l25 0 0
-1485 0 -1485 30 0 c25 0 30 -4 30 -25 0 -21 5 -25 30 -25 27 0 30 -3 30 -30
0 -25 4 -30 25 -30 20 0 25 -5 25 -25 0 -21 5 -25 30 -25 27 0 30 -3 30 -30 0
-27 3 -30 30 -30 27 0 30 -3 30 -30 0 -27 3 -30 30 -30 27 0 30 -3 30 -30 0
-25 4 -30 25 -30 20 0 25 -5 25 -25 0 -21 5 -25 30 -25 27 0 30 -3 30 -30 0
-27 3 -30 30 -30 27 0 30 -3 30 -30 0 -25 4 -30 25 -30 20 0 25 -5 25 -25 0
-21 5 -25 30 -25 27 0 30 -3 30 -30 0 -27 3 -30 30 -30 27 0 30 -3 30 -30 0
-27 3 -30 30 -30 27 0 30 -3 30 -30 0 -25 4 -30 25 -30 20 0 25 -5 25 -25 0
-21 5 -25 30 -25 27 0 30 -3 30 -30 0 -27 3 -30 30 -30 27 0 30 -3 30 -30 0
-25 4 -30 25 -30 20 0 25 -5 25 -25 0 -21 5 -25 30 -25 27 0 30 -3 30 -30 0
-27 3 -30 30 -30 27 0 30 -3 30 -30 0 -27 3 -30 30 -30 27 0 30 -3 30 -30 0
-25 4 -30 25 -30 20 0 25 -5 25 -25 0 -21 5 -25 30 -25 27 0 30 -3 30 -30 0
-27 3 -30 30 -30 27 0 30 -3 30 -30 0 -27 3 -30 30 -30 27 0 30 -3 30 -30 0
-25 4 -30 25 -30 20 0 25 -5 25 -25 0 -21 5 -25 30 -25 27 0 30 -3 30 -30 0
-27 3 -30 30 -30 27 0 30 -3 30 -30 0 -25 4 -30 25 -30 20 0 25 -5 25 -25 0
-21 5 -25 30 -25 27 0 30 -3 30 -30 0 -27 3 -30 30 -30 27 0 30 -3 30 -30 0
-27 3 -30 30 -30 27 0 30 -3 30 -30 0 -25 4 -30 25 -30 20 0 25 -5 25 -25 0
-21 5 -25 30 -25 27 0 30 -3 30 -30 0 -27 3 -30 30 -30 27 0 30 -3 30 -30 0
-25 4 -30 25 -30 20 0 25 -5 25 -25 0 -21 5 -25 30 -25 27 0 30 -3 30 -30 0
-27 3 -30 30 -30 27 0 30 -3 30 -30 0 -27 3 -30 30 -30 27 0 30 -3 30 -30 0
-25 4 -30 25 -30 20 0 25 -5 25 -25 0 -21 5 -25 30 -25 27 0 30 -3 30 -30 0
-27 3 -30 30 -30 17 0 30 -5 30 -11 0 -25 525 9 810 52 1640 247 3071 1323
3774 2839 291 627 439 1265 462 2000 6 187 5 210 -9 210 -9 0 -18 12 -22 30
-5 23 -12 30 -30 30 -17 0 -24 7 -28 30 -5 24 -12 30 -31 30 -19 0 -25 6 -28
28 -2 20 -8 27 -23 25 -23 -2 -35 13 -35 43 0 17 -5 20 -24 17 -20 -4 -25 0
-31 26 -5 24 -12 31 -30 31 -18 0 -24 6 -27 28 -2 21 -8 27 -28 27 -21 0 -26
6 -28 33 -3 29 -6 31 -28 26 -21 -5 -25 -2 -30 25 -5 24 -12 31 -29 31 -17 0
-24 7 -28 30 -5 24 -12 30 -31 30 -19 0 -25 6 -28 28 -2 21 -8 27 -28 27 -20
0 -26 6 -28 28 -3 21 -9 27 -27 27 -18 0 -25 7 -30 30 -5 23 -12 30 -30 30
-17 0 -24 7 -28 30 -5 24 -12 30 -32 30 -21 0 -25 5 -25 30 0 27 -2 30 -25 24
-22 -5 -26 -2 -31 25 -5 24 -12 31 -29 31 -17 0 -24 7 -28 30 -5 24 -12 30
-31 30 -19 0 -25 6 -28 28 -2 21 -8 27 -28 27 -20 0 -26 7 -30 30 -4 24 -10
29 -27 27 -17 -2 -23 4 -28 28 -5 23 -12 30 -30 30 -17 0 -24 7 -28 30 -5 24
-12 30 -32 30 -21 0 -25 5 -25 31 0 28 -3 31 -24 25 -25 -6 -36 7 -36 43 0 14
-6 17 -24 14 -20 -4 -25 0 -31 26 -5 24 -12 31 -30 31 -18 0 -24 6 -27 28 -2
21 -8 27 -28 27 -20 0 -26 7 -30 30 -4 24 -10 29 -28 27 -18 -3 -23 3 -28 27
-5 24 -12 31 -29 31 -17 0 -24 7 -28 30 -5 24 -12 30 -31 30 -19 0 -25 6 -28
28 -2 21 -8 27 -26 25 -18 -2 -24 3 -29 27 -4 23 -11 30 -28 30 -18 0 -25 7
-30 30 -5 23 -12 30 -30 30 -17 0 -24 7 -29 31 -5 24 -10 30 -28 27 -19 -2
-24 2 -26 30 -3 29 -6 31 -28 26 -21 -5 -25 -2 -30 25 -5 24 -12 31 -29 31
-17 0 -24 7 -28 30 -5 24 -12 30 -31 30 -19 0 -25 6 -28 28 -2 21 -8 27 -28
27 -20 0 -26 7 -30 30 -4 24 -10 29 -27 27 -17 -2 -23 4 -28 28 -5 23 -12 30
-30 30 -17 0 -24 7 -28 30 -5 24 -12 30 -32 30 -21 0 -25 5 -25 31 0 28 -3 31
-24 25 -25 -6 -36 7 -36 43 0 14 -6 17 -24 14 -20 -4 -25 0 -31 26 -5 24 -12
31 -30 31 -18 0 -24 6 -27 28 -2 21 -8 27 -28 27 -20 0 -26 7 -30 30 -4 24
-10 29 -28 27 -18 -3 -23 3 -28 27 -4 20 -13 31 -28 33 -14 2 -22 11 -24 28
-2 14 -7 28 -10 31 -4 3 -1145 -176 -2537 -398z m2102 -65 c117 -166 211 -303
209 -305 -5 -5 -365 -63 -389 -63 -17 1 -64 61 -226 293 -113 161 -205 297
-204 302 0 7 315 67 388 73 6 1 105 -134 222 -300z m-937 -152 c116 -164 209
-301 206 -303 -5 -5 -353 -62 -383 -63 -17 0 -64 60 -229 294 -114 161 -207
298 -207 302 0 8 363 73 390 70 7 0 107 -135 223 -300z m-940 -147 c117 -165
210 -302 207 -305 -6 -6 -351 -63 -383 -64 -15 0 -69 70 -226 293 -113 160
-207 297 -207 302 -1 8 209 47 391 74 3 1 102 -134 218 -300z m-933 -155 c193
-273 210 -300 190 -305 -41 -11 -387 -63 -390 -58 -26 31 -417 592 -417 597 0
7 376 72 395 68 6 -1 105 -137 222 -302z m-937 -149 c197 -280 209 -300 188
-307 -13 -3 -103 -19 -201 -34 -152 -23 -180 -25 -192 -13 -17 17 -406 570
-411 584 -4 9 361 75 393 71 6 0 107 -136 223 -301z m71 -899 c87 -178 159
-326 159 -330 0 -3 -93 -6 -206 -6 l-205 0 -160 326 c-87 179 -159 328 -159
330 0 2 93 4 206 4 l205 0 160 -324z m950 -1 c87 -179 159 -327 159 -330 0 -3
-93 -5 -206 -5 l-206 0 -159 324 c-87 179 -159 327 -159 330 0 3 93 6 206 6
l206 0 159 -325z m949 -1 c88 -180 160 -328 160 -330 0 -2 -92 -4 -205 -4
l-206 0 -159 322 c-88 177 -160 326 -160 330 0 4 92 8 205 8 l206 0 159 -326z
m950 -1 c88 -179 160 -328 160 -330 0 -1 -93 -3 -207 -3 l-208 1 -158 322
c-86 177 -157 325 -157 330 0 4 92 7 205 7 l205 0 160 -327z m949 1 c89 -180
161 -328 161 -330 0 -2 -93 -4 -207 -4 l-208 0 -162 330 -161 330 208 0 208 0
161 -326z m-279 -1879 l0 -885 -1755 0 -1755 0 0 885 0 885 1755 0 1755 0 0
-885z"/>
</g>
</svg>
